<?xml version="1.0" standalone="no"?>
<!DOCTYPE svg PUBLIC "-//W3C//DTD SVG 20010904//EN"
 "http://www.w3.org/TR/2001/REC-SVG-20010904/DTD/svg10.dtd">
<svg version="1.0" xmlns="http://www.w3.org/2000/svg"
 width="1776.000000pt" height="1776.000000pt" viewBox="0 0 1776.000000 1776.000000"
 preserveAspectRatio="xMidYMid meet">
<metadata>
Created by potrace 1.14, written by Peter Selinger 2001-2017
</metadata>
<g transform="translate(0.000000,1776.000000) scale(0.100000,-0.100000)"
fill="#000000" stroke="none">
<path d="M480 11819 c-115 -31 -205 -83 -286 -164 -83 -84 -132 -162 -165
-266 l-24 -74 0 -2420 c0 -1331 3 -2436 7 -2455 3 -19 12 -51 18 -70 6 -19 13
-44 15 -54 3 -11 9 -22 13 -25 5 -3 12 -16 16 -28 18 -59 111 -159 231 -251
11 -8 144 -66 157 -68 5 -1 9 -3 11 -4 13 -12 580 -14 4127 -17 4507 -3 4121
-9 4270 64 191 93 312 254 355 472 7 36 7 4810 0 4841 -3 14 -8 36 -11 50 -17
89 -85 212 -162 292 -48 50 -168 138 -188 138 -3 0 -20 7 -37 15 -102 47 120
45 -4217 44 -4028 0 -4055 0 -4130 -20z"/>
<path d="M17499 9836 c-11 -11 -95 -18 -284 -21 -110 -3 -201 -8 -203 -13 -5
-15 23 -41 50 -46 44 -7 67 -25 90 -69 21 -39 23 -58 26 -237 1 -107 2 -368 1
-580 0 -212 -1 -392 0 -400 1 -49 -1 -419 -3 -440 -5 -59 -27 -98 -63 -115
-20 -10 -47 -17 -60 -17 -23 0 -36 -12 -39 -35 -3 -16 -35 -15 358 -17 l338
-1 0 26 c0 22 -4 26 -31 27 -76 2 -122 51 -128 134 -1 21 -3 435 -4 920 -2
881 -2 883 -22 886 -12 2 -23 1 -26 -2z"/>
<path d="M10583 9629 c-2 -23 7 -29 51 -33 68 -7 103 -25 122 -64 17 -35 18
-84 19 -768 1 -826 1 -820 -63 -847 -30 -13 -84 -25 -124 -27 -5 0 -6 -10 -4
-22 l3 -22 409 -1 c225 0 415 -4 422 -8 7 -5 12 -4 12 2 0 6 7 8 16 4 12 -5
15 0 12 23 -3 26 -7 29 -38 30 -28 1 -113 12 -140 19 -33 8 -50 22 -70 57 -23
40 -23 48 -25 320 l-2 278 31 0 c96 1 266 9 296 14 66 11 85 15 125 26 22 6
45 12 50 13 91 21 314 187 315 234 0 6 4 13 10 15 5 2 23 43 40 91 32 94 43
204 28 267 -16 67 -42 140 -50 140 -4 0 -8 6 -8 14 0 8 -29 43 -64 78 -84 82
-212 147 -324 164 -21 3 -44 8 -52 11 -8 4 -236 8 -505 8 -470 2 -491 1 -492
-16z m783 -30 c-5 8 0 8 16 2 13 -5 26 -9 31 -9 92 -5 166 -70 206 -182 13
-36 15 -43 30 -123 10 -53 7 -293 -4 -347 -4 -19 -8 -40 -9 -46 -7 -45 -57
-144 -91 -179 -64 -66 -125 -87 -259 -90 l-104 -2 3 426 c2 417 6 501 28 501
6 0 7 3 4 7 -11 10 28 32 70 39 21 3 40 8 42 10 2 2 13 -1 24 -7 14 -8 18 -8
13 0z"/>
<path d="M15234 9548 c-93 -32 -160 -44 -261 -47 -21 -1 -21 -4 -21 -143 0
-79 -1 -155 -1 -169 l-1 -26 -105 1 c-58 1 -105 -1 -106 -4 -8 -51 -13 -48 98
-47 57 0 106 -2 109 -6 3 -3 6 -227 6 -499 1 -271 3 -497 6 -502 2 -4 6 -26 8
-48 1 -22 14 -64 29 -93 42 -87 119 -139 226 -154 145 -19 255 13 338 100 33
34 94 147 86 159 -7 12 -45 19 -45 9 0 -23 -54 -91 -91 -116 -71 -47 -159 -27
-177 40 -5 17 -9 274 -9 570 l-1 537 37 1 c20 0 86 1 148 1 85 0 113 4 117 14
14 35 -1 39 -153 38 l-149 0 0 203 c1 112 -1 204 -3 206 -2 2 -40 -9 -85 -25z"/>
<path d="M12675 9188 c-139 -32 -236 -80 -314 -158 -82 -83 -141 -215 -159
-360 -8 -62 -7 -284 1 -343 13 -94 56 -229 78 -247 4 -3 9 -15 13 -27 12 -39
123 -138 193 -174 37 -19 69 -34 72 -35 4 0 25 -6 48 -12 63 -19 120 -26 208
-26 233 0 380 62 507 213 47 56 100 199 114 306 8 69 8 301 0 350 -4 22 -9 49
-11 60 -2 11 -8 32 -13 46 -6 15 -8 30 -5 33 3 3 1 11 -4 18 -5 7 -16 29 -23
48 -50 128 -169 231 -325 284 -68 23 -100 28 -210 30 -71 2 -148 -1 -170 -6z
m224 -66 c73 -54 124 -179 149 -367 9 -67 8 -443 -1 -525 -9 -79 -41 -202 -65
-250 -26 -53 -81 -108 -116 -116 -52 -12 -65 -11 -105 7 -99 44 -164 213 -176
459 -9 162 -4 404 9 447 2 10 7 40 11 67 3 27 8 53 11 58 3 5 7 19 10 32 8 48
61 146 94 174 52 45 130 51 179 14z"/>
<path d="M14384 9185 c-16 -5 -42 -18 -57 -27 -14 -10 -30 -18 -35 -18 -17 0
-118 -113 -128 -142 -18 -56 -32 44 -24 165 2 28 0 29 -32 22 -18 -4 -44 -9
-58 -11 -163 -18 -322 -24 -382 -13 -20 3 -42 3 -48 -1 -16 -10 -8 -56 9 -52
18 4 71 -18 92 -38 14 -14 22 -28 38 -70 3 -8 6 -235 7 -505 3 -546 3 -549
-60 -579 -30 -14 -63 -23 -92 -25 -6 -1 -10 -11 -9 -23 l2 -22 387 0 c213 -1
389 1 391 4 1 3 -1 13 -4 24 -5 13 -19 19 -47 22 -56 5 -124 25 -124 37 0 6
-3 7 -7 4 -6 -6 -47 51 -45 63 0 3 -3 10 -8 15 -9 12 -10 37 -11 452 0 183 2
351 6 375 17 102 112 233 188 257 44 14 97 21 97 13 0 -4 -15 -23 -33 -42 -45
-50 -55 -71 -63 -129 -15 -112 60 -192 178 -190 93 1 144 30 181 103 20 40 24
61 22 120 -4 146 -90 226 -240 223 -33 -1 -74 -6 -91 -12z"/>
<path d="M16164 9190 c-124 -18 -265 -79 -323 -140 -63 -67 -76 -178 -30 -265
31 -58 93 -88 171 -81 69 6 96 17 135 56 51 51 65 135 35 212 -14 34 -65 86
-97 98 -37 14 -31 29 22 52 87 38 206 32 259 -15 61 -53 67 -75 72 -262 4
-168 -3 -194 -61 -230 -39 -25 -132 -66 -212 -93 -246 -85 -341 -149 -394
-262 -21 -45 -25 -69 -24 -135 0 -44 7 -93 14 -110 7 -16 13 -32 13 -35 3 -10
42 -65 60 -83 20 -21 98 -58 136 -66 34 -7 168 -6 207 1 83 15 203 95 244 162
13 21 19 25 22 15 43 -143 92 -180 242 -184 113 -2 206 22 274 74 20 15 22 21
12 40 -12 21 -12 21 -39 3 -32 -23 -72 -34 -72 -20 0 5 -4 7 -9 4 -15 -9 -37
27 -39 64 -2 19 -4 231 -6 470 -1 239 -5 444 -8 455 -4 11 -9 34 -13 50 -8 33
-41 91 -65 116 -23 24 -88 70 -102 73 -7 2 -20 6 -28 9 -60 23 -109 30 -219
32 -69 1 -149 -1 -177 -5z m246 -845 l0 -265 -26 -23 c-15 -12 -32 -27 -38
-32 -21 -20 -76 -37 -115 -37 -44 1 -87 20 -113 51 -56 67 -51 247 8 327 29
40 83 94 93 94 4 0 16 9 28 19 11 10 33 26 49 34 16 8 47 33 69 56 22 22 41
40 43 40 1 1 2 -118 2 -264z"/>
</g>
</svg>
